<svg version="1.0" xmlns="http://www.w3.org/2000/svg"
 width="1000.000000pt" height="270.000000pt"
 preserveAspectRatio="xMidYMid meet">
  <rect width="100%" height="100%" fill="#eb6864" /> 
  <defs>
    <style>.cls-1{fill:#ffffff;}.cls-2{fill:#333;}</style>
  </defs>
  <g transform="translate(366.000000,-120.000000) scale(0.30)" stroke="none">
    <path class="cls-1" d="M1000,559.71,618.69,779.86v440.28L1000,1440.29l381.31-220.15V779.86Zm351.8,643.4L1000,1406.2,648.2,1203.11V796.89L1000,593.8l351.8,203.09Z"/>
    <polygon class="cls-1" points="940.72 1250.23 922.97 1235.43 735.81 1080.41 825.1 941.51 781.75 811.37 810.75 782.5 881.34 832.7 864.32 849.23 910.53 828.75 944.48 814.68 981.98 821.54 998.14 1250.23 940.72 1250.23"/>
    <polygon class="cls-1" points="1264.19 1080.41 1077.03 1235.43 1059.28 1250.23 1001.86 1250.23 1018.02 821.54 1055.47 814.68 1089.47 828.75 1135.68 849.23 1118.66 832.7 1189.25 782.5 1218.25 811.37 1174.9 941.51 1264.19 1080.41"/>
    <path class="cls-2" d="M1003.72,1262.53H955.47l44.53,37.14,0-.91.1.09,0,.82,44.53-37.14Z"/>
  </g>
</svg>
