<?xml version="1.0" standalone="no"?>
<!DOCTYPE svg PUBLIC "-//W3C//DTD SVG 20010904//EN"
 "http://www.w3.org/TR/2001/REC-SVG-20010904/DTD/svg10.dtd">
<svg version="1.0" xmlns="http://www.w3.org/2000/svg"
 width="900.000000pt" height="966.000000pt" viewBox="0 0 900.000000 966.000000"
 preserveAspectRatio="xMidYMid meet">
<g transform="translate(0.000000,966.000000) scale(0.100000,-0.100000)"
fill="#eb6864" stroke="none">
<path d="M4480 8752 c-8 -4 -33 -19 -55 -33 -22 -14 -67 -41 -100 -59 -74 -41
-205 -117 -225 -130 -8 -6 -22 -13 -30 -17 -8 -4 -46 -26 -85 -48 -38 -23 -77
-44 -85 -48 -8 -4 -28 -16 -45 -27 -16 -11 -37 -23 -45 -27 -8 -4 -46 -26 -85
-48 -38 -23 -77 -44 -85 -48 -8 -4 -28 -16 -45 -27 -16 -11 -37 -23 -45 -27
-18 -8 -208 -119 -230 -133 -8 -6 -22 -13 -30 -17 -8 -4 -58 -32 -110 -63 -52
-31 -102 -59 -110 -63 -8 -4 -28 -16 -45 -27 -16 -11 -37 -23 -45 -27 -8 -4
-46 -26 -85 -48 -38 -23 -77 -44 -85 -48 -8 -4 -29 -16 -46 -26 -17 -10 -51
-30 -75 -43 -24 -13 -63 -36 -87 -51 -23 -15 -59 -37 -80 -48 -20 -11 -44 -24
-52 -29 -26 -17 -164 -96 -180 -104 -17 -8 -36 -19 -95 -57 -22 -14 -47 -29
-55 -32 -8 -4 -31 -17 -50 -28 -19 -12 -55 -32 -80 -46 -25 -13 -58 -33 -75
-44 -16 -10 -37 -22 -45 -26 -8 -4 -46 -26 -85 -48 -38 -23 -77 -44 -85 -48
-8 -4 -28 -16 -45 -27 -16 -11 -37 -23 -45 -27 -18 -8 -208 -119 -230 -133 -8
-6 -22 -13 -30 -17 -8 -4 -69 -39 -135 -78 -66 -39 -137 -79 -158 -90 -21 -11
-51 -32 -67 -47 l-30 -27 0 -2034 0 -2034 22 -20 c13 -11 43 -33 68 -49 47
-30 53 -33 135 -78 28 -15 64 -36 80 -46 17 -11 44 -26 60 -34 17 -8 53 -29
80 -45 28 -17 59 -35 70 -41 11 -6 34 -19 50 -30 17 -11 39 -24 50 -30 11 -6
34 -19 50 -30 17 -11 39 -24 51 -29 11 -5 50 -27 85 -48 35 -22 71 -42 79 -46
8 -4 31 -17 50 -28 19 -12 55 -32 80 -46 25 -13 59 -33 75 -44 17 -10 37 -22
45 -26 8 -4 58 -32 110 -63 52 -31 102 -59 110 -63 8 -4 29 -16 45 -26 17 -11
50 -31 75 -44 25 -14 61 -34 80 -46 19 -11 44 -25 55 -31 11 -6 34 -19 50 -29
17 -11 50 -31 75 -44 25 -14 61 -34 80 -46 19 -11 44 -25 55 -31 11 -6 34 -19
50 -30 17 -11 37 -23 45 -27 8 -4 58 -32 110 -63 52 -31 102 -59 110 -63 8 -4
29 -16 45 -27 17 -11 37 -23 45 -27 18 -8 159 -89 180 -103 8 -6 22 -13 30
-17 8 -4 47 -26 85 -48 39 -23 77 -44 85 -48 8 -4 29 -16 45 -27 17 -11 37
-23 45 -27 8 -4 58 -32 110 -63 52 -31 102 -59 110 -63 8 -4 29 -16 45 -27 17
-11 37 -23 45 -27 8 -4 47 -26 85 -48 39 -23 77 -44 85 -48 8 -4 29 -16 45
-26 17 -11 50 -31 75 -44 25 -14 61 -34 80 -46 19 -11 45 -25 57 -30 11 -5 24
-15 28 -20 17 -29 59 -12 255 103 57 33 112 66 122 71 9 6 39 22 65 36 26 15
64 36 83 48 19 11 42 24 50 28 8 3 33 18 55 32 58 37 78 49 95 58 19 9 160 90
180 103 8 6 22 13 30 17 8 4 47 25 85 48 39 22 77 44 85 48 8 4 29 16 45 27
17 11 37 23 45 27 8 4 47 26 85 48 39 23 77 44 85 48 8 4 29 16 45 27 17 11
37 23 45 27 16 7 255 147 280 163 8 5 38 21 65 35 55 28 69 36 133 78 24 15
45 27 47 27 2 0 47 26 102 58 54 32 105 61 113 65 8 4 29 16 45 27 17 11 37
23 45 27 18 8 158 89 180 103 8 6 26 15 39 20 13 6 38 21 55 33 35 26 53 36
121 71 28 15 64 35 80 46 17 11 39 24 50 30 11 5 27 14 35 20 22 14 163 95
180 103 8 4 29 16 45 27 17 11 37 23 45 27 8 4 47 26 85 48 39 23 77 44 85 48
8 4 29 16 45 27 33 21 56 34 130 74 28 15 67 41 88 57 l38 31 -3 2035 -3 2035
-28 24 c-24 21 -267 169 -307 187 -8 4 -28 16 -45 27 -16 11 -39 24 -50 30
-11 6 -47 26 -80 45 -33 19 -69 40 -80 45 -11 6 -33 19 -50 30 -16 11 -37 23
-45 27 -8 3 -31 16 -50 28 -19 12 -71 41 -115 65 -44 23 -87 48 -95 55 -8 7
-42 28 -75 46 -33 18 -73 41 -90 51 -16 10 -37 21 -45 25 -8 3 -33 18 -55 32
-54 35 -66 41 -127 75 -29 16 -64 36 -78 43 -14 8 -38 23 -55 33 -16 11 -37
23 -45 27 -14 6 -199 114 -230 133 -8 6 -22 13 -30 17 -8 4 -46 25 -85 48 -38
22 -77 44 -85 48 -8 4 -28 16 -45 27 -16 11 -37 23 -45 27 -8 4 -46 25 -85 48
-38 22 -77 44 -85 48 -8 4 -28 16 -45 27 -16 11 -37 23 -45 27 -8 4 -58 32
-110 63 -52 31 -102 59 -110 63 -8 4 -28 16 -45 27 -16 11 -37 23 -45 27 -8 4
-46 26 -85 48 -38 23 -77 44 -85 48 -8 4 -28 16 -45 27 -16 11 -37 23 -45 27
-8 4 -59 33 -113 65 -54 32 -100 58 -102 58 -2 0 -59 33 -127 73 -68 40 -130
76 -138 80 -8 4 -31 17 -50 28 -108 66 -149 79 -190 61z m-1790 -2267 c14 -8
36 -14 50 -15 14 0 45 -6 70 -14 42 -14 87 -26 213 -60 101 -27 172 -48 218
-62 26 -8 57 -14 70 -14 13 -1 33 -8 44 -18 20 -17 200 -224 235 -271 5 -7 58
-29 120 -50 123 -43 111 -42 789 -48 683 -6 680 -6 830 35 21 6 154 158 248
283 34 45 68 59 243 95 24 5 66 16 181 48 31 9 64 16 74 16 18 0 89 18 175 46
85 27 88 25 139 -86 11 -25 25 -52 30 -60 25 -40 161 -317 161 -328 0 -7 -4
-20 -9 -30 -5 -9 -17 -37 -26 -62 -10 -25 -23 -58 -30 -75 -8 -16 -27 -65 -44
-107 -17 -43 -45 -113 -62 -155 -17 -43 -36 -91 -44 -108 -7 -16 -20 -50 -30
-75 -9 -25 -23 -58 -30 -75 -7 -16 -20 -50 -30 -75 -9 -25 -23 -58 -30 -75 -7
-16 -20 -50 -30 -75 -9 -25 -23 -58 -30 -75 -7 -16 -20 -50 -30 -75 -9 -25
-23 -58 -30 -75 -7 -16 -20 -50 -30 -75 -10 -25 -23 -58 -30 -75 -7 -16 -21
-50 -30 -75 -10 -25 -23 -58 -30 -75 -7 -16 -21 -50 -30 -75 -10 -25 -23 -58
-30 -75 -7 -16 -21 -50 -30 -75 -10 -25 -23 -58 -30 -75 -7 -16 -21 -50 -30
-75 -10 -25 -23 -58 -30 -75 -8 -16 -28 -66 -45 -110 -17 -44 -37 -93 -45
-110 -7 -16 -20 -50 -30 -75 -9 -25 -23 -58 -30 -75 -7 -16 -20 -50 -30 -75
-9 -25 -23 -58 -30 -75 -7 -16 -20 -50 -30 -75 -9 -25 -23 -58 -30 -75 -7 -16
-21 -50 -31 -75 -10 -25 -24 -53 -32 -62 -12 -14 -146 -110 -200 -143 -9 -5
-43 -30 -76 -55 -71 -54 -129 -96 -216 -155 -36 -25 -96 -67 -135 -94 -38 -27
-127 -89 -198 -137 -70 -48 -130 -91 -133 -95 -9 -15 -71 -10 -84 6 -7 8 -16
15 -21 15 -5 0 -41 22 -81 49 -101 68 -281 185 -293 191 -5 3 -37 23 -70 45
-33 22 -64 42 -70 45 -5 3 -43 28 -83 55 -40 28 -81 55 -90 60 -9 6 -64 42
-122 80 -58 39 -109 72 -115 74 -19 7 -65 55 -65 67 0 7 -6 25 -14 41 -8 15
-22 48 -31 73 -9 25 -23 59 -30 75 -14 33 -39 98 -62 160 -8 22 -21 54 -28 70
-7 17 -20 49 -29 73 -9 23 -23 61 -32 85 -9 23 -22 56 -29 72 -7 17 -20 49
-29 73 -30 80 -49 127 -61 157 -7 17 -21 50 -30 75 -9 25 -23 59 -30 75 -7 17
-19 48 -28 70 -8 22 -22 60 -32 85 -9 25 -23 59 -30 75 -14 33 -39 98 -62 160
-8 22 -21 54 -28 70 -12 30 -33 83 -62 160 -9 22 -21 54 -28 70 -7 17 -21 50
-30 75 -9 25 -23 58 -31 73 -8 16 -14 35 -14 42 0 7 -6 26 -14 42 -8 15 -22
48 -31 73 -9 25 -23 59 -30 75 -12 30 -31 77 -61 158 -9 23 -22 56 -29 72 -7
17 -19 48 -28 70 -40 107 -50 133 -91 228 -9 21 -16 49 -16 62 0 21 34 100 71
165 4 8 18 35 29 60 12 25 25 52 30 60 11 17 45 88 55 110 3 8 11 24 18 35 7
11 20 35 30 53 19 35 30 38 67 17z"/>
</g>
</svg>
