<svg width="900" height="966" xmlns="http://www.w3.org/2000/svg" xmlns:svg="http://www.w3.org/2000/svg" preserveAspectRatio="xMidYMid meet" version="1.0">
 <defs>
  <style>.cls-1{fill:#fff;}.cls-2{fill:#333;}</style>
 </defs>
 <g class="layer">
  <title>Layer 1</title>
  <g id="svg_1">
   <path d="m450,45.71l-381.31,220.15l0,440.28l381.31,220.15l381.31,-220.15l0,-440.28l-381.31,-220.15zm-2.2,21.4l6.2,385.09l-355.8,236.91l414,-167.22l-62.2,-442.09l351.8,203.09l-354,-215.78z" fill="#eb6864" fill-opacity="null" id="svg_2" stroke="null" stroke-dasharray="null" stroke-linecap="null" stroke-linejoin="null" stroke-opacity="null" stroke-width="null"/>
   <polygon class="cls-1" id="svg_3" points="390.719970703125,736.22998046875 372.969970703125,721.4300537109375 185.80999755859375,566.4100341796875 275.0999755859375,427.510009765625 231.75,297.3699951171875 260.75,268.5 331.34002685546875,318.70001220703125 314.32000732421875,335.22998046875 360.530029296875,314.75 394.47998046875,300.67999267578125 431.97998046875,307.53997802734375 448.1400146484375,736.22998046875 390.719970703125,736.22998046875 "/>
   <polygon class="cls-1" id="svg_4" points="714.18994140625,566.4100341796875 527.030029296875,721.4300537109375 509.280029296875,736.22998046875 451.8599853515625,736.22998046875 468.02001953125,307.53997802734375 505.469970703125,300.67999267578125 539.469970703125,314.75 585.6800537109375,335.22998046875 568.6600341796875,318.70001220703125 639.25,268.5 668.25,297.3699951171875 624.9000244140625,427.510009765625 714.18994140625,566.4100341796875 "/>
   <path class="cls-2" d="m453.72,748.53l-48.25,0l44.53,37.14l0,-0.91l0.1,0.09l0,0.82l44.53,-37.14l-40.91,0z" id="svg_5"/>
  </g>
 </g>
</svg>
